<svg width="304" height="55" viewBox="0 0 304 55" fill="none" xmlns="http://www.w3.org/2000/svg">
<path d="M13 53.814L51.683 1.18598H59.5679V53.814H52.5976V38.841H31.291L19.9704 53.814H13ZM35.6166 32.6146H52.5976V9.33962L35.6166 32.6146Z" fill="white"/>
<path d="M66.4224 53.814V1.18598H86.3695C90.0771 1.18598 93.2657 1.82839 95.9352 3.11321C98.6047 4.39802 100.656 6.25112 102.09 8.67251C103.573 11.0445 104.314 13.8612 104.314 17.1226C104.314 19.4946 103.746 21.6195 102.609 23.4973C101.521 25.3257 100.112 26.7835 98.3822 27.8706C96.652 28.9578 94.8476 29.5508 92.9691 29.6496L92.5242 28.9825C95.7374 28.9825 98.2586 29.7237 100.088 31.2062C101.966 32.6887 103.054 35.0606 103.35 38.3221V53.814H97.0475V38.9892C96.8497 36.8149 96.0588 35.2089 94.6746 34.1712C93.3398 33.1334 91.14 32.6146 88.075 32.6146H72.7995V53.814H66.4224ZM72.7995 26.3881H87.1852C90.3984 26.3881 92.9444 25.5728 94.8229 23.942C96.7014 22.3113 97.6407 19.9888 97.6407 16.9744C97.6407 13.9106 96.6767 11.5633 94.7487 9.93262C92.8208 8.25247 90.0277 7.4124 86.3695 7.4124H72.7995V26.3881Z" fill="white"/>
<path d="M110.288 53.814V1.18598H119.187L136.019 46.8464L152.778 1.18598H161.676V53.814H155.299V13.0458L140.246 53.814H131.719L116.666 13.0458V53.814H110.288Z" fill="white"/>
<path d="M191.337 55C186.344 55 182.043 53.9129 178.435 51.7385C174.875 49.5148 172.132 46.3522 170.204 42.2507C168.276 38.1491 167.312 33.257 167.312 27.5741C167.312 21.8913 168.276 16.9991 170.204 12.8976C172.132 8.74663 174.875 5.5593 178.435 3.33558C182.043 1.11186 186.344 0 191.337 0C196.38 0 200.681 1.11186 204.24 3.33558C207.849 5.5593 210.617 8.74663 212.545 12.8976C214.473 16.9991 215.437 21.8913 215.437 27.5741C215.437 33.257 214.473 38.1491 212.545 42.2507C210.617 46.3522 207.849 49.5148 204.24 51.7385C200.681 53.9129 196.38 55 191.337 55ZM191.337 48.7736C194.996 48.7736 198.11 47.9335 200.681 46.2534C203.301 44.5732 205.303 42.1518 206.687 38.9892C208.071 35.8266 208.763 32.0216 208.763 27.5741C208.763 23.1267 208.071 19.3217 206.687 16.159C205.303 12.947 203.301 10.5009 200.681 8.82075C198.11 7.0912 194.996 6.22642 191.337 6.22642C187.729 6.22642 184.614 7.0912 181.994 8.82075C179.423 10.5009 177.446 12.947 176.062 16.159C174.678 19.3217 173.986 23.1267 173.986 27.5741C173.986 32.0216 174.678 35.8266 176.062 38.9892C177.446 42.1518 179.423 44.5732 181.994 46.2534C184.614 47.9335 187.729 48.7736 191.337 48.7736Z" fill="white"/>
<path d="M240.748 55C236.694 55 233.159 54.2093 230.144 52.628C227.178 51.0467 224.879 48.7983 223.248 45.8827C221.666 42.9178 220.875 39.434 220.875 35.4313V1.11186H227.252V35.4313C227.252 39.681 228.414 42.9672 230.737 45.2898C233.11 47.6123 236.447 48.7736 240.748 48.7736C244.999 48.7736 248.287 47.6123 250.61 45.2898C252.983 42.9672 254.169 39.681 254.169 35.4313V1.11186H260.547V35.4313C260.547 39.434 259.731 42.9178 258.099 45.8827C256.518 48.7983 254.244 51.0467 251.277 52.628C248.311 54.2093 244.801 55 240.748 55Z" fill="white"/>
<path d="M266.108 53.814V1.18598H286.055C289.763 1.18598 292.951 1.82839 295.621 3.11321C298.29 4.39802 300.342 6.25112 301.775 8.67251C303.258 11.0445 304 13.8612 304 17.1226C304 19.4946 303.432 21.6195 302.295 23.4973C301.207 25.3257 299.798 26.7835 298.068 27.8706C296.338 28.9578 294.533 29.5508 292.655 29.6496L292.21 28.9825C295.423 28.9825 297.944 29.7237 299.773 31.2062C301.652 32.6887 302.739 35.0606 303.036 38.3221V53.814H296.733V38.9892C296.535 36.8149 295.744 35.2089 294.36 34.1712C293.025 33.1334 290.826 32.6146 287.761 32.6146H272.485V53.814H266.108ZM272.485 26.3881H286.871C290.084 26.3881 292.63 25.5728 294.508 23.942C296.387 22.3113 297.326 19.9888 297.326 16.9744C297.326 13.9106 296.362 11.5633 294.434 9.93262C292.506 8.25247 289.713 7.4124 286.055 7.4124H272.485V26.3881Z" fill="white"/>
<path fill-rule="evenodd" clip-rule="evenodd" d="M38 14.7362V10.201C33.2511 7.90053 23.7544 3.30212 19.0033 1.00159L19 1L18.9967 1.00159C14.2456 3.30212 4.7489 7.90053 0 10.201V26.301C0 36.3486 6.9436 42.1114 15.3027 45.6157L18.9723 40.6233C10.719 37.5002 6 33.0989 6 26.301V13.9616C10.0036 12.0226 15.1568 9.52733 19 7.66638C22.8432 9.52733 27.9964 12.0226 32 13.9616V22.8992L38 14.7362Z" fill="url(#paint0_radial_1_51)"/>
<defs>
<radialGradient id="paint0_radial_1_51" cx="0" cy="0" r="1" gradientUnits="userSpaceOnUse" gradientTransform="translate(0 1) rotate(49.8208) scale(58.8982 50.1647)">
<stop stop-color="#7AD0FF"/>
<stop offset="1" stop-color="#2AB7F1"/>
</radialGradient>
</defs>
</svg>
